PathFileType	4	(X/Y/Z)	C:\Git\research_data\Projects\torsion_deformities_healthy_kinematics\simulations\TD01\pre\dynamic_14_l\marker_experimental.trc
DataRate	CameraRate	NumFrames	NumMarkers	Units	OrigDataRate	OrigDataStartFrame	OrigNumFrames
200	200	10	30	mm	200	464	618
Frame#	Time	C7			T10			CLAV			STRN			RBAK			LASI			RASI			SACR			RT1			RT2			RT3			RKNE			RS1			RS2			RS3			RANK			RHEE			RTOE			LT1			LT2			LT3			LKNE			LS1			LS2			LS3			LANK			LHEE			LTOE			RHJC			LHJC		
		X1	Y1	Z1	X2	Y2	Z2	X3	Y3	Z3	X4	Y4	Z4	X5	Y5	Z5	X6	Y6	Z6	X7	Y7	Z7	X8	Y8	Z8	X9	Y9	Z9	X10	Y10	Z10	X11	Y11	Z11	X12	Y12	Z12	X13	Y13	Z13	X14	Y14	Z14	X15	Y15	Z15	X16	Y16	Z16	X17	Y17	Z17	X18	Y18	Z18	X19	Y19	Z19	X20	Y20	Z20	X21	Y21	Z21	X22	Y22	Z22	X23	Y23	Z23	X24	Y24	Z24	X25	Y25	Z25	X26	Y26	Z26	X27	Y27	Z27	X28	Y28	Z28	X29	Y29	Z29	X30	Y30	Z30	

464	2.315000	1105.918457	1235.139526	-172.449310	1055.872314	1051.857788	-179.888611	1224.286255	1181.431763	-176.115372	1261.517456	1044.317871	-179.280273	1071.977295	1164.819946	-78.132652	1195.012817	838.105286	-275.966431	1172.545410	849.587036	-73.711624	1024.456421	888.489319	-192.628906	1113.651245	645.219666	-49.630882	1066.881714	597.938232	-54.229038	1115.295776	581.522522	-67.066643	1064.491943	453.949707	-92.223564	980.465332	341.611786	-77.985596	944.433289	287.317474	-94.435242	994.181641	277.282623	-90.577408	911.210083	93.886818	-134.251663	866.263367	92.131210	-188.728851	1046.182251	59.404861	-147.001495	1199.985352	660.899292	-327.346405	1203.626343	594.683655	-322.912537	1248.657715	617.710999	-311.419678	1294.361572	476.575104	-293.398285	1290.044922	333.541748	-320.305115	1298.151611	268.394928	-312.651306	1342.287109	294.767883	-306.618652	1353.448242	98.661575	-288.576477	1319.700073	78.857750	-243.958878	1500.124756	110.779732	-273.124786	1108.304406	792.074116	-105.144702	1124.742256	783.673712	-253.120577	
465	2.320000	1112.576782	1234.120483	-172.685974	1062.589111	1050.855713	-180.305420	1231.066528	1180.451904	-176.216995	1268.285889	1043.323486	-179.177307	1078.580200	1163.800293	-78.324577	1202.125122	836.914429	-275.798584	1178.698242	848.812683	-73.628799	1031.257568	887.501038	-193.397568	1118.254150	644.662048	-49.649986	1071.127441	597.695435	-54.303123	1119.404785	580.912231	-67.025192	1067.827637	453.589844	-92.135292	982.584045	342.025238	-78.057549	946.088989	288.052826	-94.684532	995.747253	277.547119	-90.628395	911.539429	94.706757	-134.291519	866.665344	93.361748	-188.801682	1046.220459	59.359474	-146.967255	1205.661987	658.369873	-327.168732	1208.012085	591.950562	-322.783905	1253.375000	614.198120	-311.187988	1298.603638	474.650513	-292.723572	1297.529907	331.899048	-319.429718	1307.703247	267.063995	-311.773712	1351.057617	294.726135	-306.331787	1368.763306	98.978668	-287.755737	1335.962036	78.347755	-242.832596	1515.482056	115.360229	-273.090668	1114.599907	791.238784	-105.255954	1131.739346	782.533852	-253.166247	
466	2.325000	1119.245850	1233.111572	-172.951447	1069.348022	1049.848389	-180.735596	1237.861816	1179.495361	-176.350204	1275.090332	1042.362549	-179.114365	1085.198242	1162.781494	-78.550224	1209.302002	835.743774	-275.637238	1184.938965	848.036926	-73.558495	1038.129150	886.500427	-194.163620	1122.977539	644.104919	-49.659985	1075.514648	597.440186	-54.347664	1123.656006	580.304565	-66.959770	1071.301270	453.225128	-92.029671	984.899292	342.436462	-78.056351	947.928101	288.791534	-94.800804	997.484924	277.814941	-90.640350	911.913879	95.582062	-134.225357	867.083252	94.678223	-188.739105	1046.263672	59.313042	-146.928284	1211.542969	655.926697	-326.991058	1212.591309	589.302856	-322.690552	1258.288086	610.760803	-310.989655	1302.907593	472.743042	-292.100067	1304.686890	330.267029	-318.503082	1316.818481	265.786896	-310.794830	1359.394531	294.629547	-306.029785	1383.307007	99.408852	-286.742065	1351.514893	78.051575	-241.465012	1530.024536	119.963524	-273.061981	1120.987840	790.397333	-105.375751	1138.811818	781.403673	-253.216393	
467	2.330000	1125.926636	1232.117554	-173.246277	1076.149658	1048.840332	-181.177658	1244.672485	1178.566650	-176.515839	1281.931763	1041.439087	-179.093018	1091.832397	1161.767944	-78.810425	1216.542603	834.598328	-275.484528	1191.271606	847.260071	-73.501717	1045.071167	885.492310	-194.922775	1127.836548	643.547791	-49.664612	1080.061768	597.170776	-54.362816	1128.069092	579.700134	-66.876160	1074.926392	452.854858	-91.906616	987.427368	342.843048	-77.983467	949.967346	289.531525	-94.781807	999.411133	278.085175	-90.614708	912.337524	96.517036	-134.052811	867.521912	96.087845	-188.541672	1046.313843	59.266304	-146.883835	1217.652954	653.604919	-326.805023	1217.425415	586.788574	-322.614899	1263.450562	607.467224	-310.812012	1307.310425	470.868408	-291.524384	1311.537842	328.633789	-317.523285	1325.496582	264.537354	-309.711426	1367.311401	294.440887	-305.696472	1397.015015	99.877205	-285.527344	1366.281250	77.904419	-239.851456	1543.697998	124.456444	-273.042816	1127.470754	789.551470	-105.504922	1145.958657	780.288318	-253.272685	
468	2.335000	1132.619751	1231.142822	-173.570862	1082.994141	1047.836304	-181.630096	1251.498901	1177.670166	-176.714600	1288.810791	1040.557495	-179.114594	1098.483765	1160.764648	-79.105789	1223.845337	833.483215	-275.342957	1197.700073	846.482666	-73.459633	1052.083252	884.481995	-195.670715	1132.843994	642.990540	-49.667713	1084.783691	596.886169	-54.349728	1132.660278	579.099365	-66.780930	1078.715942	452.478363	-91.765961	990.178467	343.244446	-77.842644	952.216736	290.273315	-94.630722	1001.536316	278.358429	-90.553253	912.813599	97.516632	-133.776154	867.986755	97.598206	-188.213379	1046.373291	59.220219	-146.833206	1224.011353	651.436646	-326.601532	1222.572266	584.452942	-322.537262	1268.909912	604.384155	-310.635437	1311.849243	469.041534	-290.990601	1318.111328	326.991272	-316.486694	1333.742188	263.292206	-308.521149	1374.829712	294.126099	-305.315186	1409.832031	100.308861	-284.110809	1380.187744	77.838554	-237.998123	1556.457520	128.695541	-273.030548	1134.050895	788.703246	-105.644290	1153.178097	779.193183	-253.336935	
469	2.340000	1139.326172	1230.192017	-173.925369	1089.881226	1046.841187	-182.091400	1258.341309	1176.810059	-176.946915	1295.727783	1039.721680	-179.180176	1105.153564	1159.776245	-79.436638	1231.208862	832.403687	-275.215118	1204.227539	845.705994	-73.433525	1059.164185	883.474915	-196.403061	1138.010986	642.433167	-49.673016	1089.691895	596.586365	-54.310467	1137.442383	578.502625	-66.681023	1082.682373	452.095032	-91.607285	993.156982	343.641907	-77.639412	954.680054	291.019928	-94.355461	1003.864746	278.636780	-90.457939	913.344971	98.586449	-133.399994	868.483948	99.217209	-187.761383	1046.443970	59.175869	-146.775772	1230.631836	649.450439	-326.371552	1228.082764	582.335999	-322.438110	1274.705811	601.573486	-310.434509	1316.560669	467.276215	-290.490417	1324.442017	325.335754	-315.388458	1341.565552	262.032227	-307.223114	1381.977539	293.655945	-304.869904	1421.714355	100.632790	-282.499878	1393.168457	77.786530	-235.922836	1568.269043	132.534180	-273.013824	1140.729994	787.855175	-105.794959	1160.468574	778.123679	-253.411217	
470	2.345000	1146.046387	1229.269775	-174.309769	1096.810669	1045.859863	-182.560059	1265.200317	1175.990234	-177.213013	1302.683105	1038.935547	-179.290558	1111.842896	1158.807617	-79.803024	1238.631226	831.365051	-275.103668	1210.857178	844.931885	-73.424835	1066.312866	882.476929	-197.115540	1143.346436	641.876343	-49.683922	1094.793945	596.272156	-54.247898	1142.424194	577.910278	-66.583031	1086.837280	451.704132	-91.429703	996.362244	344.038422	-77.380447	957.355408	291.776825	-93.967834	1006.395264	278.923767	-90.330620	913.933594	99.732681	-132.931061	869.020325	100.953056	-187.195633	1046.528198	59.134369	-146.711121	1237.521851	647.669800	-326.107056	1233.997925	580.470520	-322.299957	1280.867310	599.088684	-310.180450	1321.478760	465.585236	-290.013428	1330.568237	323.667847	-314.223206	1348.982056	260.742828	-305.818298	1388.788818	293.007782	-304.346191	1432.632568	100.785622	-280.710236	1405.167114	77.684731	-233.654953	1579.111328	135.830490	-272.970947	1147.509708	787.010396	-105.957872	1167.828000	777.085487	-253.497385	
471	2.350000	1152.781250	1228.380249	-174.723846	1103.781738	1044.897583	-183.034531	1272.075684	1175.214844	-177.512894	1309.676880	1038.202881	-179.446243	1118.552856	1157.863647	-80.204659	1246.110474	830.372803	-275.011200	1217.591553	844.162842	-73.435081	1073.527344	881.493835	-197.803909	1148.856689	641.320862	-49.703339	1100.094360	595.944763	-54.165489	1147.611206	577.322693	-66.492455	1091.192383	451.304810	-91.231689	999.789429	344.438568	-77.072937	960.236389	292.551514	-93.482620	1009.122070	279.224274	-90.172775	914.581482	100.962074	-132.377686	869.603821	102.814270	-186.528290	1046.628052	59.096710	-146.639038	1244.682129	646.112427	-325.801727	1240.346802	578.880432	-322.108948	1287.411377	596.971863	-309.844147	1326.634766	463.980255	-289.547760	1336.530518	321.992218	-312.986420	1356.012085	259.414368	-304.309998	1395.302124	292.166626	-303.732178	1442.572754	100.715179	-278.765137	1416.140869	77.477028	-231.234009	1588.977905	138.455673	-272.869537	1154.391307	786.172442	-106.134093	1175.254354	776.084325	-253.597319	
472	2.355000	1159.531372	1227.528076	-175.167130	1110.793335	1043.959473	-183.513290	1278.967773	1174.487427	-177.846298	1316.709106	1037.526978	-179.647430	1125.284546	1156.949219	-80.640968	1253.644165	829.432739	-274.940155	1224.432861	843.401855	-73.465866	1080.805298	880.531738	-198.464096	1154.546265	640.768127	-49.733501	1105.594604	595.605774	-54.067097	1153.005493	576.740356	-66.413139	1095.758789	450.895935	-91.010895	1003.430786	344.848358	-76.723877	963.313232	293.353180	-92.916481	1012.036072	279.544373	-89.985161	915.290588	102.281883	-131.749451	870.243530	104.809685	-185.773178	1046.745972	59.063606	-146.559662	1252.106812	644.789490	-325.451660	1247.144287	577.579346	-321.855865	1294.342407	595.251099	-309.400055	1332.055176	462.471558	-289.080566	1342.370361	320.317230	-311.675812	1362.680786	258.042267	-302.704468	1401.559082	291.126129	-303.018890	1451.539307	100.383446	-276.694366	1426.062378	77.118370	-228.707718	1597.878174	140.301514	-272.667419	1161.375734	785.345365	-106.324665	1182.745197	775.126290	-253.712722	
473	2.360000	1166.297119	1226.717285	-175.638962	1117.843994	1043.050659	-183.994812	1285.876343	1173.811401	-178.212723	1323.779175	1036.911621	-179.893982	1132.038696	1156.069458	-81.111015	1261.229370	828.550720	-274.892517	1231.382324	842.652527	-73.518814	1088.143799	879.596863	-199.092194	1160.417358	640.219666	-49.775890	1111.294434	595.256958	-53.956711	1158.607178	576.163696	-66.347099	1100.547607	450.476135	-90.764038	1007.276794	345.274963	-76.339668	966.574890	294.192200	-92.286888	1015.126404	279.890961	-89.767578	916.063477	103.699730	-131.056610	870.950256	106.948425	-184.945145	1046.884033	59.035328	-146.473465	1259.782959	643.704895	-325.055786	1254.389526	576.569702	-321.536285	1301.652100	593.938354	-308.829407	1337.760742	461.068268	-288.599060	1348.128418	318.654358	-310.293060	1369.018311	256.626984	-301.011230	1407.603516	289.888763	-302.200409	1459.555054	99.768822	-274.532349	1434.923584	76.577957	-226.129120	1605.839355	141.286682	-272.315125	1168.463137	784.533785	-106.530606	1190.297656	774.217650	-253.844950	
